<svg width="20" height="20" viewBox="0 0 20 20" fill="none" xmlns="http://www.w3.org/2000/svg">
<g clip-path="url(#clip0_23_645)">
<path d="M5.16448 11.4681L5.87172 13.3252C5.95236 13.537 6.17729 13.6562 6.39788 13.6047L7.17041 13.4235V17.0107C7.17041 17.2605 7.37299 17.4632 7.6229 17.4632H12.3123C12.5622 17.4632 12.7648 17.2605 12.7648 17.0107V13.4235L13.5373 13.6047C13.7581 13.6565 13.9829 13.5371 14.0635 13.3252L14.7707 11.4681C14.8547 11.2477 14.7552 10.9997 14.5422 10.8985L11.5542 9.47724C11.34 9.37538 11.0835 9.4562 10.9664 9.66235C10.9636 9.66728 10.6675 10.1541 9.96756 10.1541C9.29435 10.1541 8.99507 9.70398 8.96742 9.65991C8.85313 9.44823 8.59869 9.37371 8.38091 9.47724L5.3929 10.8985C5.17996 10.9998 5.08055 11.2477 5.16448 11.4681ZM8.45077 10.4462C8.72421 10.7195 9.21539 11.0591 9.9676 11.0591C10.7198 11.0591 11.211 10.7195 11.4844 10.4462L13.7764 11.5363L13.3586 12.6333L12.4156 12.4121C12.2811 12.3806 12.1396 12.4122 12.0312 12.498C11.9229 12.5838 11.8598 12.7144 11.8598 12.8526V16.5582H8.07534V12.8526C8.07534 12.7144 8.01217 12.5838 7.90389 12.498C7.79561 12.4122 7.65412 12.3806 7.51951 12.4121L6.57652 12.6333L6.15874 11.5363L8.45077 10.4462Z" fill="white"/>
<path d="M18.8933 0H1.1063C0.856388 0 0.653809 0.202624 0.653809 0.452489V5.57706C0.653809 5.82692 0.856388 6.02955 1.1063 6.02955H1.5544V6.89656H1.52431C1.2744 6.89656 1.07182 7.09919 1.07182 7.34905V17.7013C1.07182 18.9688 2.10304 20 3.37055 20H16.5644C17.8319 20 18.8631 18.9688 18.8631 17.7013V7.34905C18.8631 7.11081 18.6789 6.91597 18.4451 6.89833V6.02955H18.8932C19.1431 6.02955 19.3457 5.82692 19.3457 5.57706V0.452489C19.3458 0.202624 19.1432 0 18.8933 0ZM18.4408 5.12457H15.7883V4.47602C15.7883 4.22615 15.5858 4.02353 15.3358 4.02353C15.0859 4.02353 14.8834 4.22615 14.8834 4.47602V5.12457H12.231V0.904977H14.8834V2.66606C14.8834 2.91593 15.0859 3.11855 15.3358 3.11855C15.5858 3.11855 15.7883 2.91593 15.7883 2.66606V0.904977H18.4408V5.12457V5.12457ZM8.67358 5.12457V0.904977H11.326V5.12457H8.67358ZM5.11621 5.12457V0.904977H7.7686V5.12457H5.11621ZM1.55879 0.904977H4.21123V5.12457H1.55879V0.904977ZM17.5402 6.89656H5.88779C5.63788 6.89656 5.4353 7.09919 5.4353 7.34905C5.4353 7.59891 5.63788 7.80154 5.88779 7.80154H17.9582V17.7013C17.9582 18.4698 17.3329 19.095 16.5644 19.095H3.37055C2.60204 19.095 1.97679 18.4698 1.97679 17.7013V7.80154H4.07779C4.3277 7.80154 4.53028 7.59891 4.53028 7.34905C4.53028 7.09919 4.3277 6.89656 4.07779 6.89656H2.45937V6.02955H17.5401V6.89656H17.5402Z" fill="white"/>
</g>
<defs>
<clipPath id="clip0_23_645">
<rect width="20" height="20" fill="white"/>
</clipPath>
</defs>
</svg>
