<svg width="26" height="26" viewBox="0 0 26 26" fill="none" xmlns="http://www.w3.org/2000/svg">
<g clip-path="url(#clip0_238_443)">
<path d="M25.6191 21.6778C25.8295 21.6778 26 21.5072 26 21.2969V7.43945C26 6.83744 25.5102 6.34766 24.9082 6.34766H19.6523V1.0918C19.6523 0.489785 19.1626 0 18.5605 0H6.22263C5.71909 0.0155898 5.71944 0.746281 6.22263 0.761719H18.5605C18.7425 0.761719 18.8906 0.909797 18.8906 1.0918V18.5605C18.8906 18.7425 18.7425 18.8906 18.5605 18.8906H1.0918C0.909797 18.8906 0.761719 18.7425 0.761719 18.5605V1.0918C0.761719 0.909797 0.909797 0.761719 1.0918 0.761719H4.43102C4.93457 0.746129 4.93421 0.0154375 4.43102 0H1.0918C0.489785 0 0 0.489785 0 1.0918V18.5605C0 19.1626 0.489785 19.6523 1.0918 19.6523H6.34766V24.9082C6.34766 25.5102 6.83744 26 7.43945 26H24.9082C25.5102 26 26 25.5102 26 24.9082V23.0886C25.9844 22.585 25.2537 22.5854 25.2383 23.0886V24.9082C25.2383 25.0902 25.0902 25.2383 24.9082 25.2383H7.43945C7.25745 25.2383 7.10938 25.0902 7.10938 24.9082V19.6523H7.87109V20.2316C7.88668 20.7351 8.61738 20.7347 8.63281 20.2316V19.6523H18.5605C19.1626 19.6523 19.6523 19.1626 19.6523 18.5605V8.63281H20.1607C20.6642 8.61722 20.6639 7.88653 20.1607 7.87109H19.6523V7.10938H24.9082C25.0902 7.10938 25.2383 7.25745 25.2383 7.43945V21.2969C25.2383 21.5072 25.4088 21.6778 25.6191 21.6778Z" fill="black"/>
<path d="M17.7994 23.7148C17.2959 23.7304 17.2962 24.4611 17.7994 24.4766H18.5473C19.0508 24.461 19.0504 23.7303 18.5473 23.7148H17.7994Z" fill="black"/>
<path d="M20.0431 23.7148C19.5395 23.7304 19.5399 24.4611 20.0431 24.4766H20.7909C21.2945 24.461 21.2941 23.7303 20.7909 23.7148H20.0431Z" fill="black"/>
<path d="M24.4766 10.9978C24.461 10.4943 23.7303 10.4946 23.7148 10.9978V11.7457C23.7304 12.2492 24.4611 12.2489 24.4766 11.7457V10.9978Z" fill="black"/>
<path d="M15.5557 23.7148C15.0522 23.7304 15.0526 24.4611 15.5557 24.4766H16.3036C16.8072 24.461 16.8068 23.7303 16.3036 23.7148H15.5557Z" fill="black"/>
<path d="M8.252 22.8559C8.46239 22.8559 8.63286 22.6854 8.63286 22.4751L8.63281 21.7272C8.61722 21.2237 7.88653 21.224 7.87109 21.7272V22.4667C7.87109 22.4676 7.87114 22.4717 7.87114 22.4725L8.252 22.4751H7.87114C7.87114 22.6854 8.04162 22.8559 8.252 22.8559Z" fill="black"/>
<path d="M13.3121 23.7148C12.8086 23.7304 12.8089 24.4611 13.3121 24.4766H14.06C14.5635 24.461 14.5631 23.7303 14.06 23.7148H13.3121Z" fill="black"/>
<path d="M8.66791 24.0692C8.91328 24.2552 9.20238 24.3838 9.50397 24.4411C9.70557 24.4811 9.91088 24.346 9.94927 24.1381C9.98853 23.9314 9.85289 23.7321 9.64621 23.6928C9.45944 23.6573 9.28028 23.5776 9.12804 23.4622C8.96041 23.3351 8.72148 23.368 8.59448 23.5356C8.46737 23.7032 8.50028 23.9422 8.66791 24.0692V24.0692Z" fill="black"/>
<path d="M11.0689 23.7148C10.5654 23.7304 10.5657 24.4611 11.0689 24.4766H11.8168C12.3203 24.461 12.32 23.7303 11.8168 23.7148H11.0689Z" fill="black"/>
<path d="M24.4766 13.2414C24.461 12.7378 23.7303 12.7382 23.7148 13.2414V13.9892C23.7304 14.4928 24.4611 14.4924 24.4766 13.9892V13.2414Z" fill="black"/>
<path d="M23.9069 23.319C24.1022 23.382 24.3219 23.2724 24.3844 23.0699C24.4456 22.8753 24.4766 22.6724 24.4766 22.4668V22.2156C24.461 21.7121 23.7303 21.7124 23.7148 22.2156V22.4668C23.7148 22.5948 23.6957 22.7209 23.6577 22.8415C23.5947 23.0422 23.7063 23.256 23.9069 23.319V23.319Z" fill="black"/>
<path d="M23.6816 9.59301C23.729 9.79928 23.9403 9.92491 24.1397 9.87627C24.3444 9.82797 24.4712 9.62287 24.4229 9.41817C24.3525 9.11963 24.2115 8.83647 24.015 8.59932C23.8807 8.43733 23.6406 8.41483 23.4787 8.549C23.3167 8.68321 23.2942 8.92331 23.4284 9.08525C23.5504 9.23251 23.6379 9.40806 23.6816 9.59301Z" fill="black"/>
<path d="M22.2867 24.4766H22.467C22.7025 24.4766 22.9333 24.4361 23.153 24.3563C23.621 24.1697 23.3713 23.4832 22.8931 23.6403C22.7569 23.6898 22.6136 23.7148 22.467 23.7148H22.2867C21.7832 23.7304 21.7835 24.4611 22.2867 24.4766V24.4766Z" fill="black"/>
<path d="M22.785 8.25195C22.785 8.04162 22.6146 7.87109 22.4042 7.87109H21.6563C21.1528 7.88668 21.1531 8.61738 21.6563 8.63281H22.4042C22.6146 8.63281 22.785 8.46229 22.785 8.25195Z" fill="black"/>
<path d="M24.4766 15.4849C24.461 14.9814 23.7303 14.9818 23.7148 15.4849V16.2328C23.7304 16.7364 24.4611 16.736 24.4766 16.2328V15.4849Z" fill="black"/>
<path d="M24.4766 19.972C24.461 19.4685 23.7303 19.4688 23.7148 19.972V20.7199C23.7304 21.2234 24.4611 21.2231 24.4766 20.7199V19.972Z" fill="black"/>
<path d="M24.4766 17.7285C24.461 17.2249 23.7303 17.2253 23.7148 17.7285V18.4763C23.7304 18.9799 24.4611 18.9795 24.4766 18.4763V17.7285Z" fill="black"/>
<path d="M1.52344 4.15353V4.90138C1.53903 5.40493 2.26972 5.40457 2.28516 4.90138V4.15353C2.26957 3.64998 1.53887 3.65034 1.52344 4.15353Z" fill="black"/>
<path d="M2.13299 3.08046C2.26264 3.08046 2.38908 3.0142 2.46033 2.89476C2.55823 2.73084 2.69463 2.58921 2.8549 2.48526C3.03136 2.37075 3.08154 2.13487 2.96702 1.9584C2.85256 1.78199 2.61668 1.73177 2.44022 1.84628C2.18281 2.01335 1.96359 2.2409 1.80637 2.50435C1.69851 2.68498 1.75752 2.91878 1.93814 3.02659C1.99929 3.0631 2.06652 3.08046 2.13299 3.08046Z" fill="black"/>
<path d="M1.52344 7.14491C1.53903 7.64846 2.26972 7.6481 2.28516 7.14491V6.39706C2.26957 5.89351 1.53887 5.89387 1.52344 6.39706V7.14491Z" fill="black"/>
<path d="M4.33887 17.748C4.33887 17.9584 4.50934 18.1289 4.71973 18.1289H5.46758C5.97113 18.1133 5.97077 17.3826 5.46758 17.3672H4.71973C4.50939 17.3672 4.33887 17.5377 4.33887 17.748Z" fill="black"/>
<path d="M3.71143 1.9043C3.71143 2.11463 3.8819 2.28516 4.09229 2.28516H4.84019C5.34374 2.26957 5.34338 1.53887 4.84019 1.52344H4.09229C3.8819 1.52344 3.71143 1.69396 3.71143 1.9043Z" fill="black"/>
<path d="M8.82568 17.748C8.82568 17.9584 8.99616 18.1289 9.20654 18.1289H9.9544C10.4579 18.1133 10.4576 17.3826 9.9544 17.3672H9.20654C8.99616 17.3672 8.82568 17.5377 8.82568 17.748Z" fill="black"/>
<path d="M18.1289 6.89523C18.1133 6.39168 17.3826 6.39204 17.3672 6.89523V7.64308C17.3828 8.14663 18.1135 8.14627 18.1289 7.64308V6.89523Z" fill="black"/>
<path d="M18.1289 11.3823C18.1133 10.8787 17.3826 10.8791 17.3672 11.3823V12.1301C17.3828 12.6337 18.1135 12.6333 18.1289 12.1301V11.3823Z" fill="black"/>
<path d="M18.1289 9.13876C18.1133 8.63521 17.3826 8.63557 17.3672 9.13876V9.88661C17.3828 10.3902 18.1135 10.3898 18.1289 9.88661V9.13876Z" fill="black"/>
<path d="M13.313 17.748C13.313 17.9584 13.4835 18.1289 13.6938 18.1289H14.4417C14.9453 18.1133 14.9449 17.3826 14.4417 17.3672H13.6938C13.4835 17.3672 13.313 17.5377 13.313 17.748Z" fill="black"/>
<path d="M18.1289 13.6259C18.1133 13.1223 17.3826 13.1227 17.3672 13.6259V14.3737C17.3828 14.8773 18.1135 14.8769 18.1289 14.3737V13.6259Z" fill="black"/>
<path d="M17.7481 15.4885C17.5377 15.4885 17.3672 15.659 17.3672 15.8694V16.1191C17.3672 16.2476 17.3478 16.374 17.3097 16.4949C17.2465 16.6955 17.3578 16.9094 17.5584 16.9727C17.7536 17.0358 17.9734 16.9263 18.0362 16.724C18.0977 16.5289 18.1289 16.3253 18.1289 16.1191V15.8694C18.1289 15.659 17.9584 15.4885 17.7481 15.4885V15.4885Z" fill="black"/>
<path d="M16.5438 17.2931C16.408 17.3422 16.2651 17.3672 16.1189 17.3672H15.9371C15.4336 17.3828 15.4339 18.1135 15.9371 18.1289H16.1189C16.3538 18.1289 16.584 18.0887 16.8032 18.0093C17.001 17.9377 17.1032 17.7193 17.0316 17.5216C16.96 17.3238 16.742 17.2212 16.5438 17.2931V17.2931Z" fill="black"/>
<path d="M16.0581 1.52344H15.3101C14.8066 1.53903 14.807 2.26972 15.3101 2.28516H16.0581C16.5616 2.26957 16.5612 1.53887 16.0581 1.52344Z" fill="black"/>
<path d="M18.1289 4.6517C18.1133 4.14815 17.3826 4.14851 17.3672 4.6517V5.39955C17.3828 5.9031 18.1135 5.90274 18.1289 5.39955V4.6517Z" fill="black"/>
<path d="M17.6686 2.2531C17.5345 2.09096 17.2944 2.06826 17.1323 2.20232C16.9702 2.33638 16.9474 2.57643 17.0815 2.73852C17.2033 2.88589 17.2907 3.06154 17.3342 3.24654C17.3815 3.45286 17.5927 3.57865 17.7921 3.5302C17.9969 3.48211 18.1239 3.27711 18.0757 3.07231C18.0056 2.77366 17.8647 2.4904 17.6686 2.2531V2.2531Z" fill="black"/>
<path d="M1.52344 13.8756C1.53903 14.3791 2.26972 14.3788 2.28516 13.8756V13.1277C2.26957 12.6242 1.53887 12.6245 1.52344 13.1277V13.8756Z" fill="black"/>
<path d="M1.52344 16.126C1.53903 16.6295 2.26972 16.6292 2.28516 16.126V15.3713C2.26957 14.8678 1.53887 14.8681 1.52344 15.3713V16.126Z" fill="black"/>
<path d="M2.31849 17.7205C2.56376 17.9068 2.85276 18.0356 3.1543 18.0932C3.35585 18.1333 3.56131 17.9984 3.5998 17.7906C3.63921 17.5839 3.50372 17.3845 3.2971 17.3451C3.11042 17.3094 2.93132 17.2295 2.77918 17.114C2.61155 16.9867 2.37272 17.0195 2.24552 17.1869C2.11836 17.3544 2.15096 17.5933 2.31849 17.7205V17.7205Z" fill="black"/>
<path d="M1.52344 11.632C1.53903 12.1356 2.26972 12.1352 2.28516 11.632V10.8842C2.26957 10.3806 1.53887 10.381 1.52344 10.8842V11.632Z" fill="black"/>
<path d="M7.08393 1.52344H6.33602C5.83248 1.53903 5.83283 2.26972 6.33602 2.28516H7.08393C7.58748 2.26957 7.58712 1.53887 7.08393 1.52344Z" fill="black"/>
<path d="M1.52344 9.3885C1.53903 9.89205 2.26972 9.8917 2.28516 9.3885V8.64065C2.26957 8.1371 1.53887 8.13746 1.52344 8.64065V9.3885Z" fill="black"/>
<path d="M13.8144 1.52344H13.0665C12.5629 1.53903 12.5633 2.26972 13.0665 2.28516H13.8144C14.3179 2.26957 14.3176 1.53887 13.8144 1.52344Z" fill="black"/>
<path d="M11.0693 17.748C11.0693 17.9584 11.2398 18.1289 11.4502 18.1289H12.1981C12.7016 18.1133 12.7012 17.3826 12.1981 17.3672H11.4502C11.2399 17.3672 11.0693 17.5377 11.0693 17.748Z" fill="black"/>
<path d="M6.58203 17.748C6.58203 17.9584 6.7525 18.1289 6.96289 18.1289H7.71075C8.21429 18.1133 8.21394 17.3826 7.71075 17.3672H6.96289C6.75255 17.3672 6.58203 17.5377 6.58203 17.748Z" fill="black"/>
<path d="M11.5707 1.52344H10.8228C10.3193 1.53903 10.3196 2.26972 10.8228 2.28516H11.5707C12.0743 2.26957 12.0739 1.53887 11.5707 1.52344Z" fill="black"/>
<path d="M9.32758 1.52344H8.57968C8.07613 1.53903 8.07648 2.26972 8.57968 2.28516H9.32758C9.83113 2.26957 9.83077 1.53887 9.32758 1.52344Z" fill="black"/>
</g>
<defs>
<clipPath id="clip0_238_443">
<rect width="26" height="26" fill="white"/>
</clipPath>
</defs>
</svg>
