<svg width="50" height="50" viewBox="0 0 50 50" fill="none" xmlns="http://www.w3.org/2000/svg">
<circle cx="25" cy="25" r="25" fill="#AC882E"/>
<path d="M36.1781 34.2968C34.4852 31.3766 31.7181 29.2336 28.4672 28.325C30.0012 27.5458 31.2281 26.2726 31.9499 24.7108C32.6717 23.1489 32.8464 21.3895 32.4458 19.7162C32.0452 18.0429 31.0927 16.5533 29.7418 15.4877C28.391 14.4221 26.7206 13.8425 25 13.8425C23.2794 13.8425 21.609 14.4221 20.2581 15.4877C18.9073 16.5533 17.9548 18.0429 17.5542 19.7162C17.1536 21.3895 17.3283 23.1489 18.0501 24.7108C18.7719 26.2726 19.9988 27.5458 21.5328 28.325C18.2819 29.2336 15.5148 31.3766 13.8219 34.2968C13.7772 34.3711 13.748 34.4536 13.736 34.5395C13.724 34.6253 13.7293 34.7127 13.7518 34.7964C13.7742 34.8801 13.8133 34.9584 13.8667 35.0267C13.9201 35.0949 13.9867 35.1517 14.0625 35.1937C14.1372 35.2369 14.2196 35.2648 14.3051 35.2761C14.3906 35.2874 14.4775 35.2816 14.5608 35.2593C14.6441 35.2369 14.7222 35.1984 14.7906 35.1459C14.859 35.0933 14.9163 35.0278 14.9594 34.9531C15.9769 33.1905 17.4405 31.7269 19.203 30.7093C20.9655 29.6917 22.9648 29.156 25 29.156C27.0352 29.156 29.0345 29.6917 30.797 30.7093C32.5595 31.7269 34.0231 33.1905 35.0406 34.9531C35.0983 35.0529 35.1812 35.1358 35.281 35.1934C35.3809 35.251 35.4941 35.2813 35.6094 35.2812C35.7243 35.2794 35.837 35.2494 35.9375 35.1937C36.0133 35.1517 36.0799 35.0949 36.1333 35.0267C36.1867 34.9584 36.2258 34.8801 36.2482 34.7964C36.2707 34.7127 36.276 34.6253 36.264 34.5395C36.252 34.4536 36.2228 34.3711 36.1781 34.2968ZM18.6562 21.5C18.6562 20.2453 19.0283 19.0188 19.7254 17.9756C20.4224 16.9323 21.4132 16.1192 22.5724 15.6391C23.7315 15.159 25.007 15.0333 26.2376 15.2781C27.4682 15.5229 28.5985 16.1271 29.4857 17.0143C30.3729 17.9014 30.9771 19.0318 31.2219 20.2624C31.4666 21.4929 31.341 22.7684 30.8609 23.9276C30.3807 25.0868 29.5676 26.0775 28.5244 26.7746C27.4812 27.4717 26.2547 27.8437 25 27.8437C23.3175 27.8437 21.704 27.1754 20.5143 25.9857C19.3246 24.796 18.6562 23.1824 18.6562 21.5Z" fill="white"/>
</svg>
