<svg width="24" height="24" viewBox="0 0 24 24" fill="none" xmlns="http://www.w3.org/2000/svg">
<path d="M21.7702 6.89063C22.0376 7.01967 22.279 7.19675 22.4824 7.41305C22.5387 7.47295 22.6118 7.51455 22.692 7.53244C22.7723 7.55032 22.8561 7.54368 22.9325 7.51336C23.0089 7.48304 23.0745 7.43045 23.1206 7.36241C23.1668 7.29437 23.1915 7.21402 23.1914 7.1318V4.3125C23.1914 4.23309 23.1683 4.15539 23.125 4.08883C23.0817 4.02227 23.02 3.9697 22.9474 3.9375C21.9443 3.49688 20.8338 3.36046 19.7538 3.54516V1.21875C19.7538 1.10997 19.7106 1.00565 19.6337 0.928726C19.5568 0.851807 19.4525 0.808594 19.3437 0.808594H16.8333C16.7245 0.808656 16.6202 0.851889 16.5433 0.928794C16.4664 1.0057 16.4232 1.10999 16.4231 1.21875V4.81594C15.5428 5.28967 14.6194 5.67831 13.6652 5.97656V1.21875C13.6652 1.10997 13.622 1.00565 13.5451 0.928726C13.4682 0.851807 13.3639 0.808594 13.2551 0.808594H10.7449C10.6363 0.808904 10.5323 0.852254 10.4557 0.929139C10.379 1.00602 10.3359 1.11017 10.3359 1.21875V5.97656C9.38172 5.67845 8.45822 5.28972 7.57805 4.8157V1.21875C7.57798 1.10999 7.53475 1.0057 7.45785 0.928794C7.38094 0.851889 7.27665 0.808656 7.16789 0.808594H4.65633C4.54755 0.808594 4.44322 0.851807 4.3663 0.928726C4.28938 1.00565 4.24617 1.10997 4.24617 1.21875V3.54516C3.16619 3.36035 2.05571 3.49677 1.05258 3.9375C0.979989 3.9697 0.9183 4.02227 0.874993 4.08883C0.831686 4.15539 0.808621 4.23309 0.808594 4.3125V7.12969C0.808615 7.21144 0.833068 7.29133 0.878814 7.35908C0.924561 7.42684 0.989512 7.47938 1.06533 7.50996C1.14115 7.54054 1.22438 7.54777 1.30434 7.53071C1.38429 7.51365 1.45733 7.47308 1.51406 7.41422C1.71981 7.19801 1.96283 7.02065 2.23148 6.89063C2.86981 6.6139 3.5882 6.58432 4.24711 6.80766V9.10805C3.16713 8.92329 2.0567 9.05845 1.05258 9.49687C0.979971 9.52905 0.918266 9.58161 0.874955 9.64818C0.831645 9.71475 0.808591 9.79246 0.808594 9.87187V12.6914C0.808669 12.7734 0.833282 12.8534 0.879265 12.9213C0.925247 12.9891 0.990491 13.0416 1.06659 13.0721C1.14269 13.1025 1.22616 13.1095 1.30625 13.092C1.38633 13.0746 1.45937 13.0336 1.51594 12.9743C1.72019 12.7571 1.96246 12.5792 2.23078 12.4493C2.86896 12.1726 3.58693 12.1419 4.24641 12.363V14.6639C3.16635 14.479 2.05578 14.6155 1.05258 15.0563C0.979989 15.0884 0.9183 15.141 0.874993 15.2076C0.831686 15.2741 0.808621 15.3518 0.808594 15.4312V18.2508C0.808615 18.3325 0.833068 18.4124 0.878814 18.4802C0.924561 18.5479 0.989512 18.6005 1.06533 18.6311C1.14115 18.6616 1.22438 18.6689 1.30434 18.6518C1.38429 18.6347 1.45733 18.5942 1.51406 18.5353C1.72001 18.3188 1.96267 18.1405 2.23078 18.0087C2.86932 17.7327 3.58755 17.7034 4.24641 17.9266V22.7812C4.24641 22.89 4.28962 22.9944 4.36654 23.0713C4.44346 23.1482 4.54778 23.1914 4.65656 23.1914H7.16672C7.27548 23.1913 7.37977 23.1481 7.45667 23.0712C7.53358 22.9943 7.57681 22.89 7.57687 22.7812V19.4576C8.46012 19.8598 9.38555 20.1621 10.3359 20.3588V22.7812C10.3359 22.89 10.3792 22.9944 10.4561 23.0713C10.533 23.1482 10.6373 23.1914 10.7461 23.1914H13.2563C13.365 23.1914 13.4694 23.1482 13.5463 23.0713C13.6232 22.9944 13.6664 22.89 13.6664 22.7812V20.359C14.6164 20.1624 15.5414 19.8603 16.4243 19.4583V22.7812C16.4244 22.89 16.4676 22.9943 16.5445 23.0712C16.6214 23.1481 16.7257 23.1913 16.8345 23.1914H19.3437C19.4525 23.1914 19.5568 23.1482 19.6337 23.0713C19.7106 22.9944 19.7538 22.89 19.7538 22.7812V17.9266C20.4122 17.7035 21.1299 17.7325 21.768 18.0082C22.036 18.1394 22.2784 18.3173 22.4841 18.5334C22.5406 18.5928 22.6136 18.634 22.6937 18.6515C22.7738 18.669 22.8573 18.6621 22.9334 18.6316C23.0096 18.6012 23.0749 18.5487 23.1208 18.4808C23.1668 18.4129 23.1914 18.3328 23.1914 18.2508V15.4312C23.1914 15.3518 23.1683 15.2741 23.125 15.2076C23.0817 15.141 23.02 15.0884 22.9474 15.0563C21.9443 14.6156 20.8338 14.4792 19.7538 14.6641V12.3628C20.4128 12.1416 21.1303 12.1722 21.768 12.4488C22.0359 12.5801 22.2784 12.758 22.4841 12.9741C22.5406 13.0335 22.6136 13.0746 22.6937 13.0921C22.7738 13.1096 22.8573 13.1027 22.9334 13.0723C23.0096 13.0418 23.0749 12.9893 23.1208 12.9214C23.1668 12.8535 23.1914 12.7734 23.1914 12.6914V9.87187C23.1914 9.79246 23.1684 9.71475 23.125 9.64818C23.0817 9.58161 23.02 9.52905 22.9474 9.49687C21.9437 9.05826 20.8336 8.92286 19.7538 9.10734V6.80672C20.4131 6.58357 21.1317 6.61348 21.7702 6.89063V6.89063ZM18.9335 1.62891V3.72656C18.3495 3.89362 17.7834 4.11783 17.2434 4.39594V1.62891H18.9335ZM17.4987 5.18461C18.1048 4.85997 18.7492 4.61257 19.4168 4.4482C19.4287 4.44609 19.4402 4.44258 19.4522 4.4393C20.418 4.195 21.435 4.2467 22.3711 4.58766V6.28125C22.294 6.23437 22.212 6.19125 22.1252 6.14977C21.038 5.625 19.7217 5.75836 18.213 6.5482C16.6959 7.3418 15.2027 8.07516 13.6662 8.40234V6.82289C14.9041 6.50742 16.1402 5.89453 17.4987 5.18461ZM10.3359 17.0974C9.38182 16.7974 8.45806 16.4083 7.57687 15.9352V13.9012C8.45924 14.3065 9.3849 14.6099 10.3359 14.8057V17.0974ZM10.3359 9.23789V11.5385C9.38195 11.2387 8.45852 10.8492 7.57805 10.3751V8.33602C8.46097 8.7382 9.38598 9.0407 10.3359 9.23789V9.23789ZM7.57687 12.998V11.2952C8.54355 11.8056 9.56939 12.195 10.6312 12.4547C10.6482 12.4597 10.6654 12.4636 10.6828 12.4664C11.5506 12.657 12.4494 12.657 13.3172 12.4664C13.3346 12.4636 13.3518 12.4597 13.3687 12.4547C14.4306 12.195 15.4565 11.8056 16.4231 11.2952V12.998C14.6817 13.7998 13.3441 14.1492 12 14.1492C10.6559 14.1492 9.31898 13.8002 7.57687 12.998ZM13.6652 14.8055C14.6158 14.6096 15.541 14.3064 16.4231 13.9017V15.9356C15.5431 16.4102 14.6195 16.7993 13.6652 17.0977V14.8055ZM16.4231 10.3758C15.5427 10.8499 14.6192 11.2394 13.6652 11.5392V9.23789C14.6152 9.0413 15.5402 8.73919 16.4231 8.33719V10.3758ZM12.8449 1.62891V11.7171C12.2857 11.813 11.7143 11.813 11.1551 11.7171V1.62891H12.8449ZM5.06648 1.62891H6.75656V4.39453C6.21646 4.11701 5.65038 3.89328 5.06648 3.72656V1.62891ZM1.87641 6.15023C1.79227 6.19031 1.70977 6.23461 1.62891 6.28242V4.58766C2.56517 4.24668 3.58232 4.19507 4.54828 4.43953C4.55977 4.44258 4.57172 4.44609 4.58297 4.4482C5.25074 4.6126 5.89529 4.86 6.50156 5.18461C7.85953 5.89453 9.09516 6.50719 10.3348 6.82289V8.40234C8.79984 8.07422 7.3057 7.3418 5.78789 6.5482C4.27828 5.75953 2.9618 5.625 1.87641 6.15023ZM1.87641 11.7096C1.79234 11.7499 1.70992 11.794 1.62914 11.8418V10.147C2.46652 9.84134 3.37145 9.76994 4.24641 9.94055V11.5184C3.45812 11.3046 2.61998 11.3722 1.87617 11.7096H1.87641ZM5.06648 7.11188C5.17875 7.16344 5.29125 7.21477 5.40703 7.27594C5.85773 7.51031 6.3068 7.74164 6.75656 7.95937V15.5142C6.21652 15.2361 5.65044 15.0119 5.06648 14.8446V7.11188ZM6.75656 22.3711H5.06648V18.2325C5.17875 18.2843 5.29125 18.3356 5.40703 18.3966C5.85773 18.6321 6.3068 18.8623 6.75656 19.08V22.3711ZM5.78742 17.6695C4.28227 16.8804 2.96602 16.7459 1.87336 17.2711C1.78992 17.3117 1.70813 17.3559 1.62797 17.4035V15.7062C2.56435 15.3654 3.58155 15.3138 4.54758 15.5583C4.55883 15.5613 4.57102 15.5648 4.5818 15.567C5.24946 15.7313 5.89393 15.9786 6.50016 16.3031C7.80773 16.988 9.08625 17.6241 10.3338 17.9438V19.5234C8.79984 19.1953 7.3057 18.4629 5.78742 17.6695ZM11.1546 22.3711V14.9252C11.4349 14.954 11.7165 14.9688 11.9984 14.9695C12.2857 14.9695 12.567 14.9529 12.8433 14.9252V22.3711H11.1546ZM18.933 22.3711H17.2434V19.0805C17.6934 18.8625 18.1427 18.6321 18.5937 18.3961C18.7092 18.3354 18.8213 18.2843 18.9335 18.232L18.933 22.3711ZM22.3711 15.7062V17.4026C22.2935 17.3557 22.2115 17.3116 22.1245 17.2695C21.0342 16.7454 19.718 16.8799 18.213 17.6693C16.6959 18.4629 15.2032 19.1962 13.6662 19.5234V17.9435C14.9138 17.6241 16.1923 16.988 17.4996 16.3029C18.1059 15.9781 18.7505 15.7307 19.4184 15.5665C19.4299 15.5644 19.4419 15.5609 19.452 15.5578C20.4179 15.3137 21.4349 15.3654 22.3711 15.7062V15.7062ZM22.3711 10.147V11.8432C22.2937 11.7963 22.2115 11.752 22.1245 11.7101C21.3807 11.3724 20.5423 11.3046 19.7538 11.5184V9.94055C20.6288 9.76994 21.5337 9.84134 22.3711 10.147V10.147ZM18.9335 14.8448C18.3496 15.012 17.7835 15.2362 17.2434 15.5142V7.95937C17.6932 7.74141 18.1423 7.51102 18.593 7.27523C18.7087 7.21477 18.8213 7.16344 18.9335 7.11117V14.8448Z" fill="white"/>
</svg>
